<?xml version="1.0" encoding="UTF-8"?>
<svg version="1.1" xmlns="http://www.w3.org/2000/svg" width="555" height="555">
<path d="M0 0 C183.15 0 366.3 0 555 0 C555 183.15 555 366.3 555 555 C371.85 555 188.7 555 0 555 C0 371.85 0 188.7 0 0 Z " fill="#FDFDFC" transform="translate(0,0)"/>
<path d="M0 0 C17.21899022 8.32427257 17.21899022 8.32427257 25 14 C26.32064453 14.94166016 26.32064453 14.94166016 27.66796875 15.90234375 C30.46351036 17.91127779 33.23541404 19.94872558 36 22 C36.73992187 22.54269531 37.47984375 23.08539063 38.2421875 23.64453125 C45.27013066 28.93479615 51.64174435 34.93635765 58 41 C58.49854492 41.47518066 58.99708984 41.95036133 59.51074219 42.43994141 C95.39226445 76.88378651 119.19896875 127.12475417 120.3359375 177.09375 C120.37542395 179.89610692 120.38109199 182.69740408 120.375 185.5 C120.37611786 186.23213715 120.37723572 186.96427429 120.37838745 187.71859741 C120.3686166 200.79893112 118.89159805 213.2269751 116 226 C115.66263799 227.66585587 115.326717 229.33202371 115 231 C129.06904775 216.61382208 136.08007296 200.97833091 141.8125 182 C142.01963623 181.3184082 142.22677246 180.63681641 142.44018555 179.93457031 C143.78444083 175.30076997 144.50180942 170.79977163 145 166 C149.51975832 167.53841539 151.74652012 171.19446416 154.375 174.9375 C154.88812744 175.66751221 155.40125488 176.39752441 155.92993164 177.1496582 C160.6184585 184.05066934 164.57915288 191.29702916 168.4375 198.6875 C169.01612793 199.7902124 169.59475586 200.8929248 170.19091797 202.02905273 C174.15986326 209.8129607 177.24414773 217.71446048 180 226 C180.26643311 226.77835205 180.53286621 227.5567041 180.80737305 228.35864258 C194.47497788 268.98249395 189.77049954 314.76644443 171.01171875 352.96679688 C170.51091797 353.97323242 170.51091797 353.97323242 170 355 C169.67386719 355.66322266 169.34773438 356.32644531 169.01171875 357.00976562 C162.42616957 370.27269436 154.17511016 381.96731984 144.48046875 393.125 C142.9446694 394.90507609 141.44005226 396.71325381 139.98828125 398.5625 C117.1616364 426.54644182 76.96843907 444.94701134 42 451 C40.70191406 451.22558594 39.40382813 451.45117188 38.06640625 451.68359375 C-7.16782528 458.45740197 -55.68202368 450.11322716 -93 423 C-93.97710937 422.32453125 -94.95421875 421.6490625 -95.9609375 420.953125 C-103.18588758 415.85591103 -109.64284917 410.11497366 -116 404 C-116.52303711 403.49887695 -117.04607422 402.99775391 -117.58496094 402.48144531 C-123.9216727 396.37755823 -129.87238314 390.1786636 -135 383 C-135.59425781 382.17628906 -136.18851563 381.35257812 -136.80078125 380.50390625 C-138.56470874 378.0223209 -140.29118264 375.51978154 -142 373 C-142.41894531 372.39027344 -142.83789062 371.78054688 -143.26953125 371.15234375 C-151.00965024 359.37390181 -156.43365596 346.27175277 -161 333 C-161.34224609 332.03392822 -161.34224609 332.03392822 -161.69140625 331.04833984 C-167.86150769 313.5120301 -169.61962422 295.87626643 -169.5625 277.375 C-169.56268127 276.46267609 -169.56286255 275.55035217 -169.56304932 274.61038208 C-169.51993643 259.30213284 -167.86995901 245.59852514 -163 231 C-162.51446886 229.42743983 -162.03004216 227.85453811 -161.546875 226.28125 C-158.57862349 216.99702569 -154.4895679 208.34336541 -149.92431641 199.74707031 C-149.1127261 198.21306603 -148.32580221 196.66606442 -147.54296875 195.1171875 C-139.48955577 179.56736992 -128.39998226 165.85272235 -116.6875 152.9375 C-116.18355713 152.37651611 -115.67961426 151.81553223 -115.16040039 151.23754883 C-112.65620977 148.52080536 -110.48747301 146.3336892 -107 145 C-107 144.34 -107 143.68 -107 143 C-105.43059199 141.56187327 -103.79125965 140.1996995 -102.125 138.875 C-101.11566406 138.06933594 -100.10632813 137.26367188 -99.06640625 136.43359375 C-98.05449219 135.63050781 -97.04257813 134.82742187 -96 134 C-95.16339844 133.31035156 -94.32679688 132.62070313 -93.46484375 131.91015625 C-76.52475248 118 -76.52475248 118 -72 118 C-72.02320313 119.19753906 -72.04640625 120.39507812 -72.0703125 121.62890625 C-72.28581356 137.43884799 -70.44003045 151.80475015 -66 167 C-31.3574562 140.50562848 -1.97980077 104.57732637 4.4921875 59.9765625 C6.33739172 44.25646574 5.92936993 28.42156451 1.97265625 13.0859375 C0.85493783 8.75279215 0.41547109 4.45210074 0 0 Z " fill="#FE8405" transform="translate(268,45)"/>
<path d="M0 0 C3 0 3 0 5.3359375 2.1640625 C6.21507812 3.09992188 7.09421875 4.03578125 8 5 C8.89976562 5.85335938 9.79953125 6.70671875 10.7265625 7.5859375 C28.59388169 24.65199031 41.78569748 46.24794314 49.3125 69.75 C49.55500488 70.50555176 49.79750977 71.26110352 50.04736328 72.03955078 C59.61991174 103.31438577 53.87308094 135.47594306 39.125 163.9375 C35.05156442 171.54017183 30.52927229 178.35953954 25 185 C24.51176758 185.59216309 24.02353516 186.18432617 23.52050781 186.79443359 C21.94048262 188.70505923 20.34883546 190.60509298 18.75 192.5 C18.2545166 193.08821533 17.7590332 193.67643066 17.24853516 194.2824707 C14.40057747 197.5907189 11.49423074 200.34941058 8 203 C6.31002677 204.64302953 4.64783606 206.31471312 3 208 C0.0278948 211.02915136 -2.97155077 214.02716503 -6 217 C-6.72058594 217.71671875 -7.44117188 218.4334375 -8.18359375 219.171875 C-8.86550781 219.81640625 -9.54742187 220.4609375 -10.25 221.125 C-10.85328125 221.70507812 -11.4565625 222.28515625 -12.078125 222.8828125 C-14 224 -14 224 -16.26953125 224.0390625 C-20.27750322 222.51385428 -23.17857016 219.99458997 -26.4375 217.25 C-27.48877075 216.37589478 -27.48877075 216.37589478 -28.5612793 215.48413086 C-30.72171558 213.67203417 -32.86415214 211.84099183 -35 210 C-35.63776367 209.45166504 -36.27552734 208.90333008 -36.93261719 208.33837891 C-49.67685819 197.2606925 -59.76765793 184.7601904 -68 170 C-68.54398438 169.03320312 -69.08796875 168.06640625 -69.6484375 167.0703125 C-80.09809938 146.64838446 -82.88285082 120.74666229 -76.05004883 98.81591797 C-75.39618423 96.86713625 -74.7000117 94.93268537 -74 93 C-73.71253906 92.16082031 -73.42507812 91.32164062 -73.12890625 90.45703125 C-64.17998719 67.63514676 -44.01415336 47.97751946 -25.8203125 32.37109375 C-22.27807993 29.3105035 -19.14873665 26.06908636 -16.125 22.5 C-15.62105713 21.9126709 -15.11711426 21.3253418 -14.59790039 20.72021484 C-10.3423676 15.64885453 -6.66934172 10.26339009 -3.20947266 4.62304688 C-2.21232355 3.0340388 -1.11404744 1.5093546 0 0 Z " fill="#FDF9ED" transform="translate(284,271)"/>
<path d="M0 0 C0.66 0.33 1.32 0.66 2 1 C-6.58 9.58 -15.16 18.16 -24 27 C-24.66 26.67 -25.32 26.34 -26 26 C-23.40475151 23.17915526 -20.79735371 20.36983189 -18.1875 17.5625 C-17.08051758 16.35883789 -17.08051758 16.35883789 -15.95117188 15.13085938 C-15.23896484 14.36708984 -14.52675781 13.60332031 -13.79296875 12.81640625 C-13.1383667 12.10943604 -12.48376465 11.40246582 -11.80932617 10.67407227 C-10 9 -10 9 -7 8 C-7 7.34 -7 6.68 -7 6 C-5.46875 4.4921875 -5.46875 4.4921875 -3.5 2.875 C-2.8503125 2.33617187 -2.200625 1.79734375 -1.53125 1.2421875 C-1.0259375 0.83226562 -0.520625 0.42234375 0 0 Z " fill="#FCA92A" transform="translate(168,182)"/>
<path d="M0 0 C0.66 0 1.32 0 2 0 C2 9.24 2 18.48 2 28 C0.10870581 24.21741163 -0.28593851 22.65908001 -0.44921875 18.61328125 C-0.49240234 17.59298828 -0.53558594 16.57269531 -0.58007812 15.52148438 C-0.61552734 14.46251953 -0.65097656 13.40355469 -0.6875 12.3125 C-0.75807617 10.70665039 -0.75807617 10.70665039 -0.83007812 9.06835938 C-1.05545596 3.24178816 -1.05545596 3.24178816 -1 1 C-0.67 0.67 -0.34 0.34 0 0 Z " fill="#FDBE4A" transform="translate(194,163)"/>
<path d="M0 0 C2.475 0.99 2.475 0.99 5 2 C4.67 2.66 4.34 3.32 4 4 C3.34 4 2.68 4 2 4 C2.33 5.03125 2.66 6.0625 3 7.125 C3.9715192 10.48426709 4.17116771 13.49106202 4 17 C0.97194274 11.59275489 -0.30134946 6.17766384 0 0 Z " fill="#FDBB2F" transform="translate(268,45)"/>
<path d="M0 0 C0.99 0.33 1.98 0.66 3 1 C1.68 3.31 0.36 5.62 -1 8 C-1.33 8 -1.66 8 -2 8 C-1.125 1.125 -1.125 1.125 0 0 Z " fill="#FDF5E2" transform="translate(397,254)"/>
</svg>
